<?xml version="1.0" encoding="utf-8"?>
<svg xmlns="http://www.w3.org/2000/svg" width="1024" height="1024" viewBox="0 0 1024 1024">
<defs>
<linearGradient id="g" x1="0%" y1="0%" x2="100%" y2="100%">
<stop offset="0%" stop-color="#295C8F"/>
<stop offset="50%" stop-color="#4a7ab5"/>
<stop offset="100%" stop-color="#7c3aed"/>
</linearGradient>
</defs>
<path fill="url(#g)" d="M443.097 460.059C447.627 461.709 489.503 486.839 493.595 490.197C493.543 497.589 494.678 506.633 493.11 513.771C491.959 519.006 465.977 558.776 461.151 566.471C457.843 561.829 445.871 541.252 443.77 536.43L384.75 536.499L304.002 536.444C305.084 534.577 306.212 532.808 307.349 530.976C314.636 519.247 320.585 506.501 328.063 494.897C346.563 493.672 367.275 495.6 385.672 494.49C395.603 487.815 406.533 481.771 416.681 475.349C425.126 470.004 434.25 464.711 443.097 460.059ZM333.224 502.265C328.959 510.368 323.796 518.953 319.872 526.964L395.952 526.922C408.607 526.913 424.476 527.33 436.873 526.693C438.834 523.861 441.335 520.488 442.775 517.435C448.895 527.493 456.372 540.854 461.716 551.349C468.697 540.178 479.464 523.243 485.455 511.241C486.349 509.449 486.027 497.227 486.001 494.096C472.443 485.922 456.408 477.052 443.399 468.435C435.15 473.457 392.41 500.755 386.587 501.811C381.438 502.744 375.434 502.181 370.179 502.168C357.884 502.139 345.508 501.801 333.224 502.265Z"/>
<path fill="url(#g)" d="M429.672 490.62C433.33 489.94 437.072 491.278 439.469 494.124C441.866 496.97 442.548 500.884 441.256 504.374C439.963 507.863 436.895 510.388 433.222 510.986C427.632 511.895 422.351 508.137 421.379 502.558C420.406 496.978 424.104 491.655 429.672 490.62ZM432.79 504.768C435.024 504.143 436.321 501.818 435.68 499.589C435.038 497.36 432.703 496.08 430.479 496.739C428.278 497.391 427.016 499.695 427.651 501.9C428.285 504.106 430.58 505.386 432.79 504.768Z"/>
<path fill="url(#g)" d="M562.196 267.33C566.515 272.564 575.919 289.888 579.7 296.514C598.096 295.829 617.939 296.229 636.41 296.262L719.93 296.167C714.295 307.445 703.487 326.937 696.669 337.302C683.495 337.691 669.377 337.436 656.125 337.397C650.252 337.319 644.377 337.31 638.504 337.369C620.354 348.577 598.82 362.813 580.384 372.675C580.266 372.614 580.148 372.553 580.029 372.492C564.271 362.855 548.136 353.566 532.822 343.253C530.303 341.557 531.097 335.124 531.057 332.228C531.009 328.821 530.362 319.567 531.734 316.864C535.134 310.163 539.861 303.481 543.924 297.102C550.162 287.27 556.254 277.344 562.196 267.33ZM538.553 338.466C552.772 346.533 566.807 354.921 580.648 363.622C598.13 352.602 618.439 341.202 635.434 329.919C642.142 329.623 649.024 329.752 655.75 329.783C667.188 329.779 680.111 329.523 691.429 329.927C695.833 321.781 700.33 313.684 704.919 305.64C690.136 305.34 674.683 305.623 659.828 305.64L584.73 305.722C582.522 308.877 581.479 310.259 578.859 313.054C573.375 303.271 567.592 292.465 561.758 282.975C555.21 294.639 544.785 308.895 538.803 320.71C537.807 322.678 538.407 335.341 538.553 338.466Z"/>
<path fill="url(#g)" d="M587.512 319.863C592.947 317.982 598.877 320.874 600.74 326.315C602.604 331.756 599.693 337.676 594.246 339.522C588.823 341.36 582.937 338.465 581.081 333.049C579.226 327.632 582.102 321.736 587.512 319.863ZM591.749 333.598C593.286 333.265 594.517 332.116 594.955 330.606C595.394 329.096 594.969 327.466 593.85 326.362C592.73 325.257 591.096 324.855 589.591 325.313C587.394 325.984 586.116 328.268 586.695 330.491C587.274 332.714 589.504 334.085 591.749 333.598Z"/>
<path fill="url(#g)" d="M623.178 761.724C635.729 760.992 641.652 762.979 650.536 772.34L650.607 762.285C653.301 762.034 655.787 762.127 658.486 762.164L658.498 804.213C658.628 826.969 661.89 847.995 631.128 850.346C618.261 851.329 609.122 848.089 599.464 839.609L603.759 834.221C605.179 835.472 607.626 837.044 609.249 838.159C618.987 844.177 634.547 845.316 644.084 838.309C653.2 831.611 650.416 824.248 650.792 814.707C650.851 813.221 651.236 814.585 650.629 813.157C650.097 813.345 648.59 815.571 647.815 816.18C629.497 830.588 600.038 822.151 596.672 797.673C594.093 778.921 603.639 763.915 623.178 761.724ZM629.777 816.049C642.986 815.175 652.962 803.718 652.012 790.514C651.062 777.309 639.549 767.399 626.35 768.424C613.257 769.441 603.443 780.841 604.386 793.94C605.328 807.039 616.673 816.917 629.777 816.049Z"/>
<path fill="url(#g)" d="M330.241 761.195C341.508 760.263 349.665 765.336 356.043 774.118C356.46 770.379 356.288 765.914 356.246 762.089C358.837 762.029 361.677 762.089 364.289 762.095C364.698 781.781 364.294 804.4 364.143 824.205C361.585 824.254 359.157 824.187 356.605 824.123C356.63 819.427 356.617 816.123 356.168 811.479C355.279 812.704 354.063 814.046 353.056 815.216C348.679 820.513 343.473 823.843 336.573 824.731C328.217 825.821 319.767 823.577 313.053 818.485C299.11 807.771 296.886 786.432 307.69 772.435C313.723 764.62 320.646 762.248 330.241 761.195ZM334.71 817.394C352.735 814.525 359.023 803.132 355.956 785.751C353.83 773.7 341.805 768.236 330.71 768.666C298.221 773.854 305.759 819.446 334.71 817.394Z"/>
<path fill="url(#g)" d="M591.005 504.718C593.261 504.59 594.967 504.876 597.196 505.141L585.149 526.675C594.073 527.443 607.36 526.344 617.423 526.929C619.705 529.663 621.424 533.227 622.883 536.446C608.492 536.577 593.896 536.093 579.526 536.416C562.006 566.662 545.508 598.874 528.262 629.384C522.145 640.207 516.001 652.693 509.622 663.163C507.187 659.401 504.165 653.484 501.871 649.416C496.107 639.048 490.223 628.748 484.22 618.517C494.867 598.338 507.223 579.108 518.191 559.076C522.347 557.26 529.438 554.871 533.07 552.597L535.871 546.656C538.973 539.765 542.162 532.914 545.436 526.103C544.939 525.425 544.461 524.733 544.001 524.03C540.459 518.6 541.462 511.498 547.45 508.351C550.103 506.942 553.228 506.725 556.049 507.753C561.753 509.853 563.682 516.401 561.507 521.898C560.103 525.446 556.395 527.041 552.983 528.23C548.478 536.87 543.053 551.819 537.343 559.053C536.306 560.366 525.965 564.283 523.473 565.343C513.765 582.882 503.372 600.232 493.45 617.701C498.847 626.238 504.341 636.509 509.357 645.395C511.648 641.716 513.78 637.725 515.855 633.881C539.124 590.774 563.052 548.03 587.267 505.466C587.749 504.617 590.098 504.764 591.005 504.718ZM553.745 521.47C555.173 520.946 556.2 519.683 556.42 518.177C556.64 516.672 556.019 515.167 554.8 514.256C553.582 513.345 551.963 513.174 550.581 513.811C548.56 514.742 547.634 517.103 548.484 519.16C549.333 521.217 551.655 522.237 553.745 521.47Z"/>
<path fill="url(#g)" d="M514.85 171.767C517.07 173.536 538.318 211.714 540.619 216.432C538.112 222.659 529.97 235.752 526.172 242.06C520.271 251.86 513.695 264.251 507.504 273.597C502.034 275.335 497.832 277.152 492.626 279.431C490.377 286.297 485.282 295.52 482.714 302.687C483.046 303.307 483.373 303.93 483.694 304.557C491.608 320.029 471.527 328.582 465.87 315.622C462.894 308.803 467.587 302.901 474.593 300.764L487.557 272.772C490.511 271.31 498.977 268.712 502.51 267.545C511.977 251.097 521.832 232.861 531.78 216.9C526.368 207.673 520.843 197.931 515.132 188.93C510.995 196.298 506.98 204.066 502.897 211.526C496.412 222.081 490.605 232.982 484.553 243.765L451.313 302.7C446.816 310.573 442.583 318.821 437.769 326.47C434.598 326.526 431.427 326.529 428.257 326.478C430.982 320.337 436.26 311.756 439.706 305.553C428.545 305.465 417.485 305.776 406.289 305.492C403.688 301.211 402.998 300.099 399.753 296.165C414.901 296.067 430.05 296.077 445.198 296.197C454.644 278.22 466.451 258.087 476.494 240.235L514.85 171.767ZM477.074 315.276C479.184 314.355 480.138 311.891 479.198 309.79C478.258 307.688 475.784 306.757 473.692 307.717C471.628 308.664 470.712 311.098 471.639 313.171C472.567 315.244 474.992 316.183 477.074 315.276Z"/>
<path fill="url(#g)" d="M570.831 200.617C576.854 200.613 581.562 204.54 581.674 210.728C581.751 213.831 580.568 216.833 578.395 219.05C575.399 222.132 573.253 222.059 569.338 222.075C559.16 240.498 546.136 258.262 535.243 276.339C528.293 287.874 520.522 299.018 513.555 310.529C513.592 317.476 513.493 324.423 513.256 331.365C491.835 343.933 470.922 357.463 449.252 370.018C453.761 372.855 461.738 377.424 465.588 380.509C481.045 370.078 496.752 360.021 512.694 350.348C520.136 354.463 536.711 364.779 543.501 369.477C542.588 372.039 541.533 373.865 540.266 376.251C532.001 371.271 521.052 365.048 513.343 359.672L509.27 362.101C496.552 369.418 480.531 379.693 467.955 387.548L468.01 436.95L460.266 436.749C459.945 419.789 460.728 402.298 460.194 385.37C453.743 381.827 440.438 374.096 434.594 369.889C437.24 367.753 452.248 359.068 455.934 356.833C472.827 346.744 489.612 336.475 506.286 326.029C506.167 322.848 505.475 310.711 506.426 308.53C509.634 301.171 516.71 290.738 521.179 283.784L547.155 242.935C551.662 235.855 558.579 225.757 562.28 218.632C559.066 209.662 560.334 202.683 570.831 200.617ZM573.282 215.671C574.733 214.944 575.675 213.486 575.741 211.864C575.807 210.243 574.988 208.713 573.601 207.87C572.214 207.027 570.479 207.003 569.07 207.809C566.972 209.007 566.21 211.659 567.351 213.789C568.492 215.919 571.121 216.753 573.282 215.671Z"/>
<path fill="url(#g)" d="M555.954 393.718C558.353 393.589 561.05 393.606 563.476 393.564C563.654 411.245 563.298 429.037 563.436 446.748C568.206 449.092 572.452 452.369 576.943 455.243C581.172 457.95 585.292 460.061 589.737 462.362C579.959 469.111 570.866 474.117 560.649 480.086C546.856 488.113 533.135 496.265 519.489 504.542C519.412 510.398 519.492 516.256 519.727 522.108C506.815 543.951 491.642 565.672 478.477 587.481C472.731 596.997 466.722 604.67 461.413 614.974C464.147 622.123 464.507 630.328 455.006 632.028C451.956 632.565 448.819 631.844 446.309 630.031C437.988 623.895 442.933 612.385 454.408 611.301C462.729 598.741 472.051 583.175 479.901 570.236C490.47 554.15 500.948 535.815 512.063 520.256C512.315 513.928 512.007 506.104 511.905 499.662C532.87 488.497 553.48 474.437 574.718 462.652C569.593 459.52 563.047 455.802 558.825 451.711C545.578 460.768 526.329 472.641 512.184 480.555C502.849 474.652 493.615 468.246 484.108 462.267C485.439 460.232 487.025 458.081 488.437 456.077C495.968 460.13 505.224 466.226 512.638 470.821C516.548 468.224 521.712 465.413 525.836 462.912C535.578 456.931 545.378 451.045 555.234 445.253C555.422 439.444 555.287 395.187 555.954 393.718ZM453.736 626.292C456.077 626.006 457.75 623.887 457.484 621.543C457.217 619.2 455.112 617.51 452.767 617.756C450.393 618.005 448.678 620.142 448.948 622.513C449.217 624.884 451.367 626.581 453.736 626.292Z"/>
<path fill="url(#g)" d="M512.247 379.931C513.776 379.97 537.222 394.752 540.374 396.787L540.503 433.545C533.031 438.908 521.084 445.183 512.803 450.388C508.251 448.188 488.407 436.031 484.517 433.056C483.662 423.454 484.209 406.263 484.229 396.197C491.296 391.572 504.299 384.631 512.247 379.931ZM492.305 401.557C491.977 410.457 492.143 419.975 492.229 428.902C498.905 433.022 505.795 436.71 512.469 440.806C518.814 437.423 525.688 432.749 532.321 428.977C532.388 419.899 532.281 410.821 532.001 401.748C526.33 397.813 518.45 392.341 512.247 389.46C505.796 393.619 498.995 397.253 492.305 401.557Z"/>
<path fill="url(#g)" d="M305.693 296.232C312.897 295.922 321.894 296.19 329.239 296.221C340.74 296.193 352.241 296.306 363.739 296.56C364.018 299.654 363.913 302.597 363.877 305.699C349.359 305.449 334.564 305.48 320.031 305.415C324.217 312.975 329.327 320.797 333.726 328.453L368.077 388.892L379.834 409.543C381.974 413.302 385.149 418.472 386.642 422.302C384.45 426.259 380.779 431.794 378.304 435.757C373.332 443.837 367.731 453.96 362.339 461.498C358.982 461.565 355.345 461.461 351.965 461.425C356.886 452.148 370.899 430.723 376.907 421.919C375.644 419.314 373.81 416.534 372.364 413.982C353.252 380.242 333.555 346.84 314.585 313.023C311.948 308.322 307.077 301.483 305.226 296.707L305.693 296.232Z"/>
<path fill="url(#g)" d="M658.444 374.055C661.545 373.865 665.399 374.015 668.563 374.059C664.09 382.692 652.421 399.796 646.655 408.887C650.031 414.15 653.67 421.142 656.851 426.694L676.593 461.04C690.177 484.701 706.887 512.479 719.007 536.46L676.625 536.347C671.727 536.409 666.828 536.428 661.93 536.405C661.825 533.243 661.929 530.09 661.992 526.927C674.875 526.402 690.885 527.183 704.12 527.099C699.702 518.903 693.954 509.579 689.278 501.312L636.446 409.442C640.95 400.004 652.246 382.822 658.444 374.055Z"/>
<path fill="url(#g)" d="M464.589 762.033C466.903 761.976 469.299 762.011 471.621 762.012C475.888 776.356 483.206 799.462 488.794 813.235C491.845 805.793 494.388 797.541 497.086 789.881C500.456 780.592 503.904 771.331 507.43 762.1C510.142 762.025 513.096 762.076 515.829 762.075C515.194 763.938 514.521 765.788 513.808 767.622L492.975 824.242C489.77 824.317 487.885 824.308 484.69 824.034C479.706 809.723 473.163 788.596 467.676 775.495C465.442 780.947 463.406 787.743 461.457 793.423C457.975 803.72 454.293 813.948 450.414 824.101L442.51 824.067C435.323 803.613 426.801 782.528 420.233 762.035C422.796 762.002 425.486 762.091 428.059 762.135C434.923 778.131 439.987 797.227 446.571 813.299C449.088 807.965 451.119 801.065 452.961 795.403C456.687 783.946 459.826 773.115 464.589 762.033Z"/>
<path fill="url(#g)" d="M215.331 738.216C217.821 738.237 220.306 738.445 222.765 738.838C231.361 740.212 239.404 743.842 244.564 751.063C243.048 753.228 241.507 754.949 239.789 756.941C233.596 750.666 227.732 748.029 219.27 746.867C209.895 745.789 196.792 749.476 196.079 760.641C194.951 773.679 209.529 774.621 218.866 777.032C233.908 780.915 248.742 784.934 246.454 804.128C244.154 823.424 225.585 826.128 209.875 824.414C199.738 823.465 190.601 818.979 183.214 812.058C184.687 808.812 186.202 806.934 188.489 804.358C192.442 808.392 195.485 810.664 200.598 813.06C212.205 819.408 241.61 818.338 238.185 799.389C234.284 777.814 189.198 791.341 187.471 764.214C186.257 745.146 199.253 739.516 215.331 738.216Z"/>
<path fill="url(#g)" d="M364.373 318.096C374.749 318.669 378.429 328.258 372.264 336.121C378.255 345.473 384.16 355.375 389.987 364.864L390.013 383.82C392.74 387.549 395.66 391.496 398.216 395.341C405.062 405.644 413.235 414.806 420.214 424.983C420.364 428.853 420.081 432.793 420.273 436.675C419.776 441.123 423.744 441.132 425.023 443.034C431.36 452.453 424.187 460.37 414.485 459.964C412.007 459.102 409.972 457.647 408.478 455.473C406.923 453.237 406.345 450.464 406.877 447.793C407.712 443.498 410.012 441.561 413.446 439.297L413.046 428.092C403.986 414.699 390.521 399.541 382.166 385.995C382.189 379.168 383.461 369.521 380.077 363.747C375.184 355.398 370.043 346.929 365.048 338.631C352.679 339.357 349.077 321.886 364.373 318.096ZM366.248 332.776C368.344 332.096 369.545 329.898 368.985 327.767C368.425 325.635 366.298 324.312 364.138 324.752C362.629 325.059 361.413 326.176 360.98 327.654C360.546 329.132 360.966 330.728 362.07 331.802C363.175 332.876 364.782 333.251 366.248 332.776ZM419.179 453.157C420.503 452.462 421.351 451.107 421.397 449.611C421.443 448.116 420.68 446.711 419.4 445.936C418.12 445.161 416.522 445.135 415.218 445.868C413.241 446.979 412.523 449.472 413.606 451.465C414.688 453.457 417.17 454.211 419.179 453.157Z"/>
<path fill="url(#g)" d="M611.273 370.188C617.272 370.858 620.992 375.067 620.678 381.355C620.387 387.201 617.893 387.855 614.014 391.311C613.292 396.135 613.743 406.516 613.824 411.868C619.782 419.941 641.097 444.007 642.958 451.474C644.346 457.045 643.546 464.151 643.487 469.908C647.421 474.616 661.872 493.297 662.957 498.67C663.627 501.988 663.893 522.104 663.241 525.686L662.462 525.978C660.493 525.064 661.149 525.759 660.24 524.016L655.502 523.846L655.75 499.084C649.581 490.407 641.682 481.554 636.036 472.77C635.664 467.008 636.626 460.571 635.426 454.95C633.63 446.528 612.097 423.4 606.238 414.172C606.379 406.484 606.435 398.795 606.406 391.105C597.058 382.758 597.865 372.25 611.273 370.188ZM611.746 384.998C613.259 384.573 614.421 383.359 614.781 381.829C615.14 380.3 614.64 378.695 613.475 377.64C612.31 376.586 610.664 376.247 609.177 376.757C606.966 377.515 605.759 379.895 606.455 382.126C607.15 384.358 609.495 385.631 611.746 384.998Z"/>
<path fill="url(#g)" d="M680.547 733.716L686.259 733.901C686.15 744.612 685.558 761.54 686.564 771.638C701.672 754.924 731.332 757.641 733.647 782.526C734.814 795.075 733.905 811.392 733.855 824.303L725.948 824.1C726.045 811.216 725.983 798.332 725.764 785.45C723.612 767.156 702.577 764.32 691.995 775.245C689.469 777.879 687.679 781.129 686.804 784.672C685.495 790.005 686.154 816.914 686.177 824.001L678.52 823.987C678.512 815.907 678.117 735.612 678.821 734.03L680.547 733.716Z"/>
<path fill="url(#g)" d="M817.616 761.204C828.523 761.626 832.896 763.211 840.35 771.212L835.547 776.623C826.904 769.239 814.028 764.482 805.266 774.245C797.889 782.465 813.084 787.584 818.917 788.982C827.179 790.962 841.059 793.777 841.61 804.667C842.42 820.672 829.731 824.927 816.375 824.742C806.154 824.103 800.634 821.669 793.251 814.579C794.818 812.179 796.391 810.09 798.106 807.799C805.709 815.953 815.885 818.873 826.802 815.723C833.551 813.775 833.631 808.05 831.744 802.294C822.539 795.612 810.733 797.451 801.523 790.49C794.845 785.443 793.84 774.871 799.302 768.558C804.414 762.649 810.321 761.891 817.616 761.204Z"/>
<path fill="url(#g)" d="M586.18 472.469C592.241 475.212 615.432 490.678 621.065 495.468C622.394 496.598 632.84 514.887 634.674 517.986L669.477 577.188C667.07 582.432 662.965 589.384 660.181 594.984C659.433 595.964 659.925 595.655 658.829 596.106C656.754 594.701 655.286 592.244 653.78 590.146C655.595 585.804 658.332 581.565 660.851 577.594C658.28 574.394 650.9 560.906 648.42 556.625L624.713 516.41C622.799 513.177 617.077 502.661 614.641 500.616C606.746 493.99 594.741 486.564 585.655 481.706C585.507 477.735 585.451 476.333 586.18 472.469Z"/>
<path fill="url(#g)" d="M367.28 235.443C368.944 237.662 370.412 239.984 371.93 242.305C369.528 246.625 367.238 251.005 365.062 255.443C377.818 275.399 395.732 309.661 409.536 330.181C410.529 331.659 434.648 346.732 438.296 349.144C438.422 351.476 439.038 355.995 437.583 357.66L436.222 357.126C425.923 350.2 413.339 343.123 403.637 335.574C401.877 334.205 396.334 324.065 394.782 321.444L372.803 283.682C367.695 274.934 360.617 264.282 356.186 255.62C359.673 248.78 363.373 242.051 367.28 235.443Z"/>
<path fill="url(#g)" d="M409.991 349.636C412.485 349.54 415.426 349.604 417.957 349.603C418.032 357.24 417.989 364.877 417.826 372.513C424.863 376.744 431.575 381.495 438.786 385.435C441.075 386.686 443.287 388.053 445.462 389.492L445.507 433.728C456.644 439.855 467.204 447.173 478.19 452.867L475.816 457.426C475.214 458.656 475.313 458.779 474.168 459.445C470.983 458.291 439.754 439.143 437.961 437.354C437.831 422.927 438.024 408.099 437.489 393.728C428.415 388.686 419.093 382.831 410.004 377.567L409.991 349.636Z"/>
<path fill="url(#g)" d="M554.109 374.25C557.013 375.1 582.319 390.659 585.705 393.213C586.145 407.835 585.501 422.75 585.828 437.466C595.084 442.819 605.152 448.469 613.973 454.421C613.921 458.24 614.506 477.654 613.195 479.672L611.625 479.89C609.711 479.942 607.914 480.119 606.071 479.617C605.469 474.97 605.743 463.376 605.738 458.21C599.779 454.516 582.428 445.052 578.046 441.083C577.28 428.459 577.667 410.347 577.493 397.344C568.192 391.303 559.933 387.759 550.495 380.442C551.45 378.591 553.02 376.104 554.109 374.25Z"/>
<path fill="url(#g)" d="M391.053 453.506L397.95 458.954C389.13 465.611 380.871 473.605 371.942 479.946C355.868 480.193 339.561 479.893 323.444 480.065C317.58 487.046 312.853 488.658 305.112 483.04C302.981 479.616 301.748 476.773 302.948 472.672C303.722 470.036 305.537 467.829 307.973 466.56C310.454 465.247 313.355 464.977 316.035 465.809C319.971 467.037 321.43 469.452 323.322 472.828C338.43 472.551 353.637 472.753 368.678 472.375C375.694 467.236 383.592 459.273 391.053 453.506ZM313.75 479.972C316.065 479.716 317.734 477.632 317.48 475.317C317.226 473.002 315.145 471.33 312.829 471.581C310.51 471.833 308.835 473.918 309.089 476.237C309.343 478.556 311.431 480.229 313.75 479.972Z"/>
<path fill="url(#g)" d="M759.307 745.714C761.624 745.678 764.063 745.771 766.39 745.818C766.374 751.247 766.434 756.677 766.568 762.105L783.499 762.214L783.439 768.791C778.295 769.063 771.829 768.826 766.473 768.947C765.874 779.153 766.392 789.583 766.305 799.76C766.16 816.793 768.821 819.561 785.393 816.656C786.14 817.554 785.826 818.454 785.827 819.98C785.811 821.576 785.979 822.457 785.11 823.78C781.885 825.997 778.513 825.439 774.738 825.445C767.76 825.94 759.351 820.027 759.068 812.474C758.557 798.844 758.209 782.472 758.801 768.871L745.708 768.966C745.592 766.697 745.59 764.213 745.541 761.923C749.642 761.761 754.271 761.836 758.416 761.808C758.478 757.603 758.033 749.964 758.527 746.288L759.307 745.714Z"/>
<path fill="url(#g)" d="M266.47 746.043C268.999 745.819 271.629 745.918 274.177 745.944C274.143 751.319 274.175 756.694 274.275 762.068L291.994 762.024L291.96 768.687C286.178 768.795 280.205 768.743 274.408 768.765C274.375 769.198 274.348 769.631 274.325 770.065C273.654 782.089 274.044 798.763 274.623 810.862C275.066 820.101 287.129 817.276 293.168 817.253L293.413 817.967L293.506 824.121C291.008 824.74 288.691 825.144 286.134 825.299C264.361 826.617 266.473 810.303 266.483 794.974L266.501 768.987C261.995 768.846 257.101 768.956 252.564 768.971L252.798 762.274C257.291 762.042 261.856 762.144 266.359 762.182L266.47 746.043Z"/>
<path fill="url(#g)" d="M709.061 347.095C734.293 345.415 715.901 383.948 701.173 361.068C684.945 360.839 668.311 361.01 652.05 360.993C649.829 363.347 646.794 365.74 644.268 367.846C641.456 370.122 639.377 371.72 636.389 373.747C634.281 372.137 632.555 370.547 630.591 368.78C636.493 363.503 642.615 358.479 648.941 353.718C663.437 352.819 685.918 353.508 701.028 353.477C704.079 349.357 704.371 349.118 709.061 347.095ZM712.878 361.157C714.341 360.668 715.418 359.416 715.685 357.897C715.952 356.377 715.365 354.834 714.157 353.875C712.948 352.916 711.311 352.697 709.892 353.302C707.817 354.189 706.811 356.554 707.613 358.664C708.415 360.773 710.738 361.873 712.878 361.157Z"/>
<path fill="url(#g)" d="M408.348 761.715C410.554 761.462 411.56 761.3 413.274 762.692C414.192 764.789 413.781 767.209 413.65 769.589C390.562 768.999 391.287 780.097 391.317 798.005C391.37 806.671 391.337 815.338 391.22 824.004L384.018 824.02L383.582 823.645C383.016 821.737 383.464 807.118 383.475 803.892C383.556 789.985 383.495 776.077 383.293 762.171L391.169 761.785L391.94 767.797C398.83 763.548 400.323 762.49 408.348 761.715Z"/>
<path fill="url(#g)" d="M535.729 767.736C545.243 761.729 547.018 761.766 558.128 762.007C558.188 764.457 558.013 766.98 557.894 769.435C533.284 769.445 534.933 781.09 534.816 800.125C534.618 807.383 535.293 817.691 534.57 824.274L526.99 824.257L527.354 781.3C527.379 776.182 526.923 767.358 527.27 762.831L528.2 762.222C530.166 762.117 532.654 761.708 534.302 762.576C535.492 764.001 535.485 765.84 535.729 767.736Z"/>
<path fill="url(#g)" d="M575.509 762.233L580.58 762.269C580.513 768.739 581.257 821.514 580.309 823.81L579.125 824.089C577.41 824.123 574.555 824.372 573.258 823.307C572.655 819.103 572.65 764.193 573.308 762.648L575.509 762.233Z"/>
<path fill="url(#g)" d="M574.575 737.22C578.332 736.081 582.302 738.201 583.445 741.956C584.588 745.712 582.472 749.684 578.718 750.831C574.957 751.979 570.979 749.86 569.834 746.099C568.689 742.337 570.813 738.361 574.575 737.22Z"/>
</svg>